<?xml version="1.0" encoding="iso-8859-1"?>
<!-- Uploaded to: SVG Repo, www.svgrepo.com, Generator: SVG Repo Mixer Tools -->
<svg fill="#000000" height="800px" width="800px" version="1.1" id="Capa_1" xmlns="http://www.w3.org/2000/svg" xmlns:xlink="http://www.w3.org/1999/xlink" 
	 viewBox="0 0 280.071 280.071" xml:space="preserve">
<path color-rendering="auto" image-rendering="auto" shape-rendering="auto" color-interpolation="sRGB" d="M10.036,260.071
	c-2.761,0-5,2.239-5,5v10c0,2.761,2.239,5,5,5h260c2.761,0,5-2.239,5-5v-10c0-2.761-2.239-5-5-5
	C270.036,260.071,10.036,260.071,10.036,260.071z M209.96,0.001c-2.759,0.042-4.963,2.311-4.924,5.07v220
	c-0.014,1.031,0.292,2.042,0.875,2.893c6.37,11.916,20.54,17.107,34.125,17.107c13.593,0,27.772-5.198,34.137-17.129
	c0.575-0.846,0.876-1.848,0.863-2.871v-220c0.039-2.761-2.168-5.031-4.93-5.07c-0.049-0.001-0.098-0.001-0.147,0
	c-1.983,0.033-3.76,1.235-4.527,3.064c-3.905,7.475-14.345,12.006-25.396,12.006c-11.025,0-21.44-4.51-25.367-11.953
	C213.892,1.207,212.022-0.031,209.96,0.001z M215.036,18.006c7.034,4.844,16.137,7.065,25,7.065c8.862,0,17.966-2.221,25-7.065
	v105.756c-4.177,7.056-14.298,11.309-25,11.309c-10.703,0-20.824-4.253-25-11.311V18.006z M229.96,30.001
	c-2.759,0.042-4.963,2.311-4.924,5.07v80c-0.039,2.761,2.168,5.032,4.929,5.071c2.761,0.039,5.032-2.168,5.071-4.929
	c0.001-0.047,0.001-0.094,0-0.141v-80c0.039-2.761-2.168-5.031-4.93-5.07C230.058,30,230.009,30,229.96,30.001z M249.96,30.001
	c-2.759,0.042-4.963,2.311-4.924,5.07v80c-0.039,2.761,2.168,5.032,4.929,5.071c2.761,0.039,5.032-2.168,5.071-4.929
	c0.001-0.047,0.001-0.094,0-0.141v-80c0.039-2.761-2.168-5.031-4.93-5.07C250.057,30,250.009,30,249.96,30.001z M215.036,138.006
	c7.034,4.844,16.137,7.065,25,7.065c8.862,0,17.966-2.221,25-7.065v25.756c-4.177,7.056-14.298,11.309-25,11.309
	c-10.703,0-20.824-4.253-25-11.311V138.006z M215.036,178.006c7.034,4.844,16.137,7.065,25,7.065c8.862,0,17.966-2.221,25-7.065
	v45.756c-4.177,7.056-14.298,11.309-25,11.309c-10.703,0-20.824-4.253-25-11.311V178.006z M109.96,0.001
	c-2.759,0.042-4.963,2.311-4.924,5.07v220c-0.014,1.031,0.292,2.042,0.875,2.893c6.37,11.916,20.54,17.107,34.125,17.107
	c13.593,0,27.772-5.198,34.137-17.129c0.575-0.846,0.876-1.848,0.863-2.871v-220c0.039-2.761-2.168-5.031-4.93-5.07
	c-0.049-0.001-0.098-0.001-0.147,0c-1.983,0.033-3.76,1.235-4.527,3.064c-3.906,7.475-14.345,12.006-25.396,12.006
	c-11.025,0-21.44-4.51-25.367-11.953C113.892,1.207,112.022-0.031,109.96,0.001z M115.036,18.006c7.034,4.844,16.137,7.065,25,7.065
	c8.863,0,17.966-2.221,25-7.065v105.756c-4.177,7.056-14.298,11.309-25,11.309c-10.703,0-20.824-4.253-25-11.311V18.006z
	 M129.96,30.001c-2.759,0.042-4.963,2.311-4.924,5.07v80c-0.039,2.761,2.168,5.032,4.929,5.071c2.761,0.039,5.032-2.168,5.071-4.929
	c0.001-0.047,0.001-0.094,0-0.141v-80c0.039-2.761-2.168-5.031-4.93-5.07C130.058,30,130.009,30,129.96,30.001z M149.96,30.001
	c-2.759,0.042-4.963,2.311-4.924,5.07v80c-0.039,2.761,2.168,5.032,4.929,5.071c2.761,0.039,5.032-2.168,5.071-4.929
	c0.001-0.047,0.001-0.094,0-0.141v-80c0.039-2.761-2.168-5.031-4.93-5.07C150.058,30,150.009,30,149.96,30.001z M115.036,138.006
	c7.034,4.844,16.137,7.065,25,7.065c8.863,0,17.966-2.221,25-7.065v25.756c-4.177,7.056-14.298,11.309-25,11.309
	c-10.703,0-20.824-4.253-25-11.311V138.006z M115.036,178.006c7.034,4.844,16.137,7.065,25,7.065c8.863,0,17.966-2.221,25-7.065
	v45.756c-4.177,7.056-14.298,11.309-25,11.309c-10.703,0-20.824-4.253-25-11.311V178.006z M9.959,0.001
	C7.2,0.043,4.996,2.312,5.035,5.071v220c-0.014,1.031,0.292,2.042,0.875,2.893c6.37,11.916,20.54,17.107,34.125,17.107
	c13.593,0,27.772-5.198,34.137-17.129c0.575-0.846,0.876-1.848,0.863-2.871v-220c0.039-2.761-2.168-5.031-4.93-5.07
	C70.057,0,70.008,0,69.959,0.001c-1.983,0.033-3.76,1.235-4.527,3.064c-3.906,7.475-14.345,12.006-25.396,12.006
	c-11.025,0-21.44-4.51-25.367-11.953C13.892,1.207,12.021-0.031,9.959,0.001z M15.035,18.006c7.034,4.844,16.137,7.065,25,7.065
	c8.862,0,17.966-2.221,25-7.065v105.756c-4.177,7.056-14.298,11.309-25,11.309c-10.703,0-20.824-4.253-25-11.311
	C15.035,123.76,15.035,18.006,15.035,18.006z M29.959,30.001c-2.759,0.042-4.963,2.311-4.924,5.07v80
	c-0.039,2.761,2.168,5.032,4.929,5.071s5.032-2.168,5.071-4.929c0.001-0.047,0.001-0.094,0-0.141v-80
	c0.039-2.761-2.168-5.031-4.93-5.07C30.057,30,30.008,30,29.959,30.001z M49.959,30.001c-2.759,0.042-4.963,2.311-4.924,5.07v80
	c-0.039,2.761,2.168,5.032,4.929,5.071c2.761,0.039,5.032-2.168,5.071-4.929c0.001-0.047,0.001-0.094,0-0.142v-80
	c0.039-2.761-2.168-5.031-4.93-5.07C50.057,30,50.008,30,49.959,30.001z M15.035,138.006c7.034,4.844,16.137,7.065,25,7.065
	c8.862,0,17.966-2.221,25-7.065v25.756c-4.177,7.056-14.298,11.309-25,11.309c-10.703,0-20.824-4.253-25-11.311
	C15.035,163.76,15.035,138.006,15.035,138.006z M15.035,178.006c7.034,4.844,16.137,7.065,25,7.065c8.862,0,17.966-2.221,25-7.065
	v45.756c-4.177,7.056-14.298,11.309-25,11.309c-10.703,0-20.824-4.253-25-11.311C15.035,223.76,15.035,178.006,15.035,178.006z"/>
</svg>